<svg width="62" height="63" viewBox="0 0 62 63" fill="none" xmlns="http://www.w3.org/2000/svg">
<path d="M58.7568 28.0868C58.7568 42.6448 46.955 54.4467 32.397 54.4467C17.8388 54.4467 6.03711 42.6448 6.03711 28.0868C6.03711 13.5286 17.8388 1.72693 32.397 1.72693C46.955 1.72693 58.7568 13.5286 58.7568 28.0868Z" fill="white"/>
<g filter="url(#filter0_bd_209_2683)">
<path d="M42.1724 18.4141C44.6579 20.8768 40.6815 40.905 36.601 41.258C33.1782 41.554 32.1114 34.8027 31.3904 32.6631C30.679 30.5511 29.8871 29.7909 27.7928 29.0979C22.472 27.3378 19.8116 26.4577 19.2848 25.064C17.8901 21.3738 38.9981 15.2687 42.1724 18.4141Z" fill="url(#paint0_linear_209_2683)"/>
<path d="M41.9636 18.6248L42.1558 18.4309L41.9636 18.6248C42.202 18.861 42.4012 19.3591 42.5209 20.1336C42.638 20.8917 42.671 21.8566 42.6279 22.9612C42.5417 25.1688 42.1533 27.8961 41.5594 30.5627C40.9653 33.2305 40.169 35.8219 39.2732 37.7617C38.8248 38.7326 38.3575 39.5271 37.8871 40.0849C37.4108 40.6497 36.9683 40.9285 36.5754 40.9625C35.8337 41.0266 35.2086 40.7156 34.6594 40.1367C34.1039 39.551 33.6439 38.7074 33.257 37.7616C32.8716 36.8194 32.5675 35.798 32.3134 34.8718C32.2365 34.5913 32.1636 34.3174 32.0943 34.0569C31.9376 33.4678 31.7989 32.9466 31.6715 32.5684C31.3096 31.4939 30.9151 30.7251 30.3184 30.1371C29.722 29.5495 28.95 29.1684 27.886 28.8163L27.886 28.8163C25.2193 27.9342 23.2404 27.2792 21.8605 26.6721C21.1714 26.3689 20.6468 26.084 20.2665 25.7978C19.8872 25.5123 19.6675 25.2377 19.5623 24.9592L19.5623 24.9592C19.4455 24.6503 19.5393 24.2667 19.9608 23.7852C20.3787 23.3078 21.068 22.7983 21.9729 22.2837C23.7775 21.2573 26.3602 20.2543 29.0978 19.4606C31.8339 18.6674 34.706 18.0887 37.084 17.903C38.2738 17.8101 39.3294 17.8164 40.178 17.939C41.037 18.0631 41.6356 18.2997 41.9636 18.6248Z" stroke="black" stroke-opacity="0.1" stroke-width="0.593197"/>
</g>
<defs>
<filter id="filter0_bd_209_2683" x="0.236452" y="0.933275" width="61.6892" height="61.6892" filterUnits="userSpaceOnUse" color-interpolation-filters="sRGB">
<feFlood flood-opacity="0" result="BackgroundImageFix"/>
<feGaussianBlur in="BackgroundImageFix" stdDeviation="5.93197"/>
<feComposite in2="SourceAlpha" operator="in" result="effect1_backgroundBlur_209_2683"/>
<feColorMatrix in="SourceAlpha" type="matrix" values="0 0 0 0 0 0 0 0 0 0 0 0 0 0 0 0 0 0 127 0" result="hardAlpha"/>
<feOffset dy="2.37279"/>
<feGaussianBlur stdDeviation="9.49115"/>
<feComposite in2="hardAlpha" operator="out"/>
<feColorMatrix type="matrix" values="0 0 0 0 0 0 0 0 0 0 0 0 0 0 0 0 0 0 0.02 0"/>
<feBlend mode="normal" in2="effect1_backgroundBlur_209_2683" result="effect2_dropShadow_209_2683"/>
<feBlend mode="normal" in="SourceGraphic" in2="effect2_dropShadow_209_2683" result="shape"/>
</filter>
<linearGradient id="paint0_linear_209_2683" x1="19.2188" y1="29.4051" x2="39.7096" y2="31.2149" gradientUnits="userSpaceOnUse">
<stop stop-color="#4BACF1"/>
<stop offset="1" stop-color="#1249E9"/>
</linearGradient>
</defs>
</svg>
