<svg width="189" height="31" viewBox="0 0 189 31" fill="none" xmlns="http://www.w3.org/2000/svg">
<g clip-path="url(#clip0_157_255)">
<mask id="mask0_157_255" style="mask-type:luminance" maskUnits="userSpaceOnUse" x="0" y="0" width="188" height="34">
<path d="M187.918 0.0893555H0.664062V33.8852H187.918V0.0893555Z" fill="white"/>
</mask>
<g mask="url(#mask0_157_255)">
<path d="M25.0967 19.4864V15.865H19.4648V14.1718H26.7873V20.0427C25.183 22.3715 22.501 23.8966 19.4648 23.8966C14.5559 23.8966 10.5762 19.9109 10.5762 14.9944C10.5762 10.078 14.5559 6.09229 19.4648 6.09229V7.78291C15.4874 7.78291 12.2643 11.011 12.2643 14.9944C12.2643 18.9779 15.4874 22.206 19.4648 22.206C21.7444 22.206 23.7774 21.1434 25.0967 19.4864Z" fill="#1676FF"/>
<path d="M38.1667 15.304C40.1063 15.304 41.6987 13.7091 41.6987 11.7643C41.6987 9.82167 40.1063 8.22431 38.1667 8.22431H36.5455H35.7026H31.7109V6.53369H35.7026H36.5455H38.1667C41.0378 6.53369 43.3893 8.88622 43.3893 11.7643C43.3893 13.1264 42.8623 14.3685 42.0026 15.304C41.1262 16.256 39.9028 16.8843 38.5377 16.9828H36.5455C36.4521 16.9828 36.3587 16.9876 36.2679 16.9946C34.7543 17.129 33.5332 18.352 33.3992 19.8679C33.392 19.9589 33.3872 20.0524 33.3872 20.1459V23.4986H31.7109V20.1459C31.7109 17.4815 33.8876 15.304 36.5455 15.304H38.1667Z" fill="#1676FF"/>
<path d="M49.9888 17.7806C49.9888 18.6511 50.2404 19.4642 50.6737 20.1476C51.3059 21.1453 52.3235 21.8694 53.5161 22.1166C53.8105 22.1765 54.1099 22.2076 54.4093 22.2076C56.8516 22.2076 58.8273 20.2266 58.8273 17.7806C58.8273 13.3989 54.4283 13.1495 52.2254 10.4828C51.2868 9.34601 50.9228 7.96703 50.8365 6.53516H52.5248C52.6206 8.00063 53.0515 9.18279 54.3422 10.1807C56.0616 11.5067 57.9293 12.1087 59.2727 13.9147C60.1203 15.0537 60.5128 16.3655 60.5128 17.7806C60.5128 18.97 60.1729 20.1236 59.524 21.1189C58.8055 22.2196 57.7711 23.0445 56.5788 23.4978C55.8963 23.7568 55.1611 23.8959 54.4068 23.8959C53.6503 23.8959 52.915 23.7568 52.2351 23.4978C50.9827 23.0207 49.91 22.1404 49.201 20.982C48.6097 20.018 48.3008 18.9173 48.3008 17.7806H49.9888Z" fill="#1676FF"/>
<path d="M65.4395 6.53516H71.3707H73.0613H78.9926V8.22854H73.0613V23.4978H71.3707V8.22854H65.4395V6.53516Z" fill="black"/>
<path d="M83.9121 14.9966C83.9121 10.0802 87.8918 6.09424 92.8007 6.09424C97.7096 6.09424 101.689 10.0802 101.689 14.9966C101.689 19.9128 97.7096 23.8988 92.8007 23.8988C87.8943 23.8963 83.9121 19.9106 83.9121 14.9966ZM100.001 14.9966C100.001 11.0132 96.7781 7.78511 92.8007 7.78511C88.8233 7.78511 85.6002 11.0132 85.6002 14.9966C85.6002 18.9799 88.8233 22.2079 92.8007 22.2079C96.7781 22.2057 100.001 18.9776 100.001 14.9966Z" fill="black"/>
<path d="M106.611 6.53516H112.543H114.233H120.164V8.22854H114.233V23.4978H112.543V8.22854H106.611V6.53516Z" fill="#1676FF"/>
<path d="M125.084 6.53516H136.545V8.22854H125.084V6.53516ZM125.084 15.862V14.1689H134.854V15.862H125.084ZM136.542 23.4978H125.082V21.8047H136.542V23.4978Z" fill="#1676FF"/>
<path d="M149.452 6.53516H152.929H154.603V8.21174H152.929H149.94C146.217 8.21174 143.159 11.2718 143.159 15.0033C143.159 18.7326 146.217 21.7951 149.94 21.7951H152.929V21.8094H154.603V23.4858H152.929H149.94C145.285 23.4858 141.471 19.668 141.471 15.0058C141.471 10.5018 145.022 6.78939 149.452 6.53516Z" fill="#1676FF"/>
<path d="M171.402 23.4978V15.862H159.537V6.53516H161.228V14.1689H171.402V6.53516H173.093V23.4978H171.402ZM161.228 19.9581V18.8238H159.537V19.9581V23.4955H161.228V19.9581Z" fill="#1676FF"/>
<path d="M94.5318 -16.8492V-15.1704H105.02C104.57 -13.1439 103.569 -11.3141 102.091 -9.83437L94.3448 -2.07608L86.5986 -9.83437C84.5393 -11.8968 83.4042 -14.6524 83.4042 -17.5926C83.4042 -20.5328 84.5393 -23.286 86.5986 -25.3508C90.8704 -29.6292 97.8195 -29.6292 102.091 -25.3508C103.26 -24.1805 104.129 -22.7967 104.673 -21.2379L106.255 -21.7919C105.628 -23.5905 104.627 -25.1877 103.279 -26.5379C98.3535 -31.4711 90.3411 -31.4711 85.4157 -26.5379C83.0377 -24.1565 81.7305 -20.9813 81.7305 -17.5926C81.7305 -14.2039 83.0402 -11.0287 85.4157 -8.64727L94.3473 0.298014L103.279 -8.64727C105.247 -10.6186 106.483 -13.1271 106.854 -15.8994L106.981 -16.8492H94.5318Z" fill="#1676FF"/>
</g>
</g>
<defs>
<clipPath id="clip0_157_255">
<rect width="188" height="30" fill="white" transform="translate(0.333984 0.0444336)"/>
</clipPath>
</defs>
</svg>
